<?xml version="1.0" encoding="UTF-8"?><svg id="Layer_2" xmlns="http://www.w3.org/2000/svg" viewBox="0 0 571.52 79.3"><defs><style>.cls-1{letter-spacing:0em;}.cls-2{letter-spacing:0em;}.cls-3{fill:#a9d291;}.cls-4{letter-spacing:0em;}.cls-5{letter-spacing:0em;}.cls-6{letter-spacing:0em;}.cls-7{letter-spacing:0em;}.cls-8{letter-spacing:-.02em;}.cls-9{font-size:18px;}.cls-9,.cls-10{font-family:Montserrat-Bold, Montserrat;font-weight:700;}.cls-11{letter-spacing:0em;}.cls-12{letter-spacing:0em;}.cls-13{letter-spacing:0em;}.cls-14{letter-spacing:0em;}.cls-15{fill:none;stroke:#a9d291;stroke-miterlimit:10;stroke-width:7px;}.cls-10{font-size:36px;}.cls-16{letter-spacing:-.02em;}</style></defs><g id="Layer_1-2"><rect class="cls-15" x="3.5" y="3.5" width="72.3" height="72.3" rx="16.52" ry="16.52"/><path class="cls-3" d="M21.36,41.86l2.96-23.69c.21-1.66,1.62-2.91,3.3-2.91h17.52c1.56,0,2.82,1.26,2.82,2.82,0,.33-.06,.68-.18,.99l-4.81,12.82h14.47c2.1,0,3.81,1.7,3.81,3.81,0,.77-.23,1.52-.66,2.15l-19.97,29.2c-.61,.89-1.62,1.42-2.69,1.42h-.3c-1.63,0-2.96-1.33-2.96-2.96,0-.24,.03-.48,.09-.72l4.88-19.61h-14.96c-1.84,0-3.32-1.49-3.32-3.32Z"/><text class="cls-10" transform="translate(95.94 38.52)"><tspan x="0" y="0">E&amp;N </tspan><tspan class="cls-8" x="89.64" y="0">C</tspan><tspan x="115.34" y="0">ont</tspan><tspan class="cls-13" x="179.46" y="0">r</tspan><tspan class="cls-6" x="194.72" y="0">a</tspan><tspan class="cls-1" x="217.15" y="0">c</tspan><tspan x="238.71" y="0">ti</tspan><tspan class="cls-6" x="265.21" y="0">n</tspan><tspan x="290.3" y="0">g G</tspan><tspan class="cls-5" x="353.45" y="0">r</tspan><tspan x="368.64" y="0">oup</tspan></text><text class="cls-9" transform="translate(95.52 59.75)"><tspan x="0" y="0">Buildi</tspan><tspan class="cls-6" x="54.85" y="0">n</tspan><tspan x="67.39" y="0">g t</tspan><tspan class="cls-6" x="92.92" y="0">h</tspan><tspan x="105.46" y="0">e futu</tspan><tspan class="cls-2" x="161.44" y="0">r</tspan><tspan x="169.04" y="0">e. Res</tspan><tspan class="cls-16" x="224.35" y="0">t</tspan><tspan x="231.87" y="0">o</tspan><tspan class="cls-12" x="243.66" y="0">r</tspan><tspan x="251.35" y="0">i</tspan><tspan class="cls-7" x="256.77" y="0">n</tspan><tspan x="269.31" y="0">g t</tspan><tspan class="cls-14" x="294.84" y="0">h</tspan><tspan x="307.38" y="0">e </tspan><tspan class="cls-4" x="323.83" y="0">p</tspan><tspan x="336.09" y="0">as</tspan><tspan class="cls-11" x="356.76" y="0">t</tspan><tspan x="364.77" y="0">.</tspan></text></g></svg>