<?xml version="1.0" encoding="UTF-8"?><svg id="Layer_2" xmlns="http://www.w3.org/2000/svg" viewBox="0 0 79.3 79.3"><defs><style>.cls-1{fill:#a9d291;}.cls-2{fill:none;stroke:#a9d291;stroke-miterlimit:10;stroke-width:7px;}</style></defs><g id="Layer_1-2"><rect class="cls-2" x="3.5" y="3.5" width="72.3" height="72.3" rx="16.52" ry="16.52"/><path class="cls-1" d="M21.36,41.86l2.96-23.69c.21-1.66,1.62-2.91,3.3-2.91h17.52c1.56,0,2.82,1.26,2.82,2.82,0,.33-.06,.68-.18,.99l-4.81,12.82h14.47c2.1,0,3.81,1.7,3.81,3.81,0,.77-.23,1.52-.66,2.15l-19.97,29.2c-.61,.89-1.62,1.42-2.69,1.42h-.3c-1.63,0-2.96-1.33-2.96-2.96,0-.24,.03-.48,.09-.72l4.88-19.61h-14.96c-1.84,0-3.32-1.49-3.32-3.32Z"/></g></svg>